<svg width="200" height="200" xmlns="http://www.w3.org/2000/svg">

 <g>
  <title>background</title>
  <rect fill="none" id="canvas_background" height="202" width="202" y="-1" x="-1"/>
 </g>
 <g>
  <title>Layer 1</title>
  <g stroke="null" id="svg_1">
   <path fill="#ffffff" stroke="null" id="svg_2" d="m84.668095,186.167438c0.754656,0.301863 1.509313,0.452794 2.263969,0.452794c1.962106,0 3.924213,-0.905588 5.131663,-2.716763l64.749512,-93.577383c1.358381,-1.811175 1.509313,-4.377007 0.452794,-6.339113c-1.056519,-1.962106 -3.169557,-3.320488 -5.433525,-3.320488l-40.147716,-0.301863l11.621707,-61.579955c0.603725,-2.716763 -0.905588,-5.584457 -3.471419,-6.791907c-2.565831,-1.20745 -5.584457,-0.452794 -7.395632,1.811175l-68.673725,86.483614c-1.509313,1.811175 -1.811175,4.377007 -0.754656,6.490044c1.056519,2.113038 3.169557,3.471419 5.584457,3.471419l44.373791,0.301863l-11.92357,68.824656c-0.603725,2.867694 0.905588,5.735388 3.62235,6.791907zm-23.394346,-88.143858l45.279379,-57.052017l-8.452151,44.524723c-0.301863,1.811175 0.150931,3.62235 1.358381,5.131663c1.20745,1.358381 2.867694,2.263969 4.678869,2.263969l35.770709,0.150931l-42.109822,60.97623l8.301219,-48.599867c0.301863,-1.811175 -0.150931,-3.62235 -1.358381,-4.980732c-1.056519,-1.358381 -2.716763,-2.113038 -4.527938,-2.113038l-38.940266,-0.301863z"/>
  </g>
 </g>
</svg>