<svg width="200" height="200" xmlns="http://www.w3.org/2000/svg">

 <g>
  <title>background</title>
  <rect fill="none" id="canvas_background" height="202" width="202" y="-1" x="-1"/>
 </g>
 <g>
  <title>Layer 1</title>
  <g stroke="null" id="svg_1">
   <path fill="#ffffff" stroke-width="0" stroke="null" id="svg_2" d="m108.182223,120.309391l0,-65.906425l-17.955822,0l0,65.903504c-7.201246,3.387167 -12.222288,10.653052 -12.222288,19.139778c0,11.708096 9.489547,21.197277 21.197642,21.197277c11.707365,0 21.199833,-9.489547 21.199833,-21.197277c0,-8.483804 -5.01812,-15.748959 -12.219366,-19.136857z"/>
   <path fill="#ffffff" stroke-width="0" stroke="null" id="svg_3" d="m145.83949,69.366759c3.305364,0 5.985152,-2.679788 5.985152,-5.985517c0,-3.305364 -2.679788,-5.985517 -5.985152,-5.985517l-13.067345,0l0,-11.824592c0,-0.049666 -0.005478,-0.096411 -0.005478,-0.146077l13.072823,0c3.305364,0 5.985152,-2.680153 5.985152,-5.985517c0,-3.305364 -2.679788,-5.985517 -5.985152,-5.985517l-15.364045,0c-4.874234,-12.534528 -17.038091,-21.454008 -31.273689,-21.454008c-18.511646,0 -33.57185,15.059839 -33.57185,33.57112l0,57.857931c-9.965759,9.299646 -15.629906,22.258163 -15.629906,35.949989c0,27.130572 22.074106,49.201756 49.204312,49.201756c27.12692,0 49.198469,-22.071184 49.198469,-49.201756c0,-13.694747 -5.664147,-26.653264 -15.630271,-35.95291l0,-10.118044l13.067345,0c3.305364,0 5.985152,-2.680153 5.985152,-5.985517c0,-3.305364 -2.679788,-5.985517 -5.985152,-5.985517l-13.067345,0l0,-11.970669l13.06698,0l0,0.000365zm-8.472483,70.012293c0,21.045356 -17.120625,38.165981 -38.162694,38.165981c-21.045356,0 -38.168537,-17.120259 -38.168537,-38.165981c0,-11.300905 4.98014,-21.9598 13.660053,-29.242849c1.247865,-1.046279 1.970218,-2.595063 1.970218,-4.226016l0,-60.339054c0,-12.426796 10.108914,-22.53571 22.53571,-22.53571c12.426431,0 22.535345,10.108914 22.535345,22.53571l0,60.336133c0,1.630953 0.721987,3.179738 1.970218,4.226016c8.679913,7.283049 13.659688,17.944866 13.659688,29.245771z"/>
  </g>
 </g>
</svg>